<?xml version="1.0" encoding="utf-8"?>
<!-- Generator: Adobe Illustrator 22.0.1, SVG Export Plug-In . SVG Version: 6.00 Build 0)  -->
<svg version="1.1" id="Layer_1" xmlns="http://www.w3.org/2000/svg" xmlns:xlink="http://www.w3.org/1999/xlink" x="0px" y="0px"
	 viewBox="0 0 257.3 256.4" style="enable-background:new 0 0 257.3 256.4;" xml:space="preserve">
<style type="text/css">
	.st0{fill:#FFFFFF;}
</style>
<path class="st0" d="M126.3,6.6c-66.8,0-121,54.2-121,121s54.2,121,121,121s121-54.2,121-121S193.1,6.6,126.3,6.6z M189.6,141.1
	l-38.8,38.8c-6.3,6.3-16.5,6.3-22.8,0l0,0c-6.3-6.3-6.3-16.5,0-22.8l11.8-11.8H65.6c-8.9,0-16.1-7.2-16.1-16.1l0,0
	c0-8.9,7.2-16.1,16.1-16.1h73.5L128,102c-6.3-6.3-6.3-16.5,0-22.8c6.3-6.3,16.5-6.3,22.8,0l38.8,38.8c3.2,3.2,4.7,7.4,4.7,11.5
	C194.3,133.8,192.8,138,189.6,141.1z"/>
</svg>
